<svg width="24" height="24" viewBox="0 0 24 24" fill="none" xmlns="http://www.w3.org/2000/svg">
<path fill-rule="evenodd" clip-rule="evenodd" d="M5.61941 0.00172377C5.95878 0.00182655 6.28601 0.120918 6.53766 0.335903C6.7893 0.550888 6.94743 0.846448 6.98136 1.16527L7.50168 6.0487H21.2837C21.7157 6.03405 22.1449 6.12087 22.5327 6.30138C22.9204 6.48189 23.2547 6.75044 23.5055 7.08296C23.7472 7.39911 23.9061 7.76481 23.9692 8.15012C24.0324 8.53543 23.998 8.92939 23.8688 9.29972L21.6068 15.7207V15.7242C21.4262 16.2306 21.0763 16.6679 20.6097 16.9704C20.1432 17.2729 19.5853 17.4241 19.0198 17.4014H8.33784C7.70133 17.4068 7.08465 17.1926 6.6036 16.799C6.12255 16.4054 5.81024 15.8596 5.7253 15.264L4.8435 6.99504C4.84064 6.96525 4.83942 6.93533 4.83985 6.90541L4.37978 2.58565H1.36925C1.0061 2.58565 0.657829 2.44944 0.401045 2.20699C0.14426 1.96454 0 1.6357 0 1.29282C0 0.949946 0.14426 0.621111 0.401045 0.37866C0.657829 0.136208 1.0061 5.10929e-09 1.36925 0H5.61941V0.00172377ZM18.673 19.9388C18.9554 19.9388 19.235 19.9913 19.496 20.0934C19.7569 20.1954 19.994 20.345 20.1937 20.5336C20.3934 20.7221 20.5518 20.946 20.6599 21.1923C20.768 21.4387 20.8236 21.7027 20.8236 21.9694C20.8236 22.2361 20.768 22.5001 20.6599 22.7465C20.5518 22.9928 20.3934 23.2167 20.1937 23.4053C19.994 23.5938 19.7569 23.7434 19.496 23.8454C19.235 23.9475 18.9554 24 18.673 24C18.1026 24 17.5555 23.7861 17.1522 23.4053C16.7489 23.0244 16.5223 22.508 16.5223 21.9694C16.5223 21.4309 16.7489 20.9144 17.1522 20.5336C17.5555 20.1527 18.1026 19.9388 18.673 19.9388ZM11.4269 21.9694C11.4353 21.6979 11.3858 21.4275 11.2816 21.1743C11.1773 20.9212 11.0203 20.6903 10.8199 20.4955C10.6194 20.3006 10.3796 20.1457 10.1146 20.0399C9.84962 19.9342 9.56484 19.8797 9.27714 19.8797C8.98944 19.8797 8.70467 19.9342 8.43968 20.0399C8.17469 20.1457 7.93487 20.3006 7.73442 20.4955C7.53397 20.6903 7.37697 20.9212 7.2727 21.1743C7.16844 21.4275 7.11903 21.6979 7.12742 21.9694C7.14372 22.4975 7.37735 22.9988 7.77873 23.3669C8.1801 23.7349 8.71761 23.9408 9.27714 23.9408C9.83668 23.9408 10.3742 23.7349 10.7756 23.3669C11.1769 22.9988 11.4106 22.4975 11.4269 21.9694ZM14.3954 8.5947C14.0928 8.5947 13.8026 8.70821 13.5886 8.91025C13.3746 9.11229 13.2544 9.38632 13.2544 9.67205V10.8563H12.0001C11.6975 10.8563 11.4073 10.9698 11.1933 11.1718C10.9793 11.3739 10.8591 11.6479 10.8591 11.9336C10.8591 12.2194 10.9793 12.4934 11.1933 12.6954C11.4073 12.8975 11.6975 13.011 12.0001 13.011H13.2544V14.1952C13.2544 14.4809 13.3746 14.755 13.5886 14.957C13.8026 15.1591 14.0928 15.2726 14.3954 15.2726C14.698 15.2726 14.9883 15.1591 15.2022 14.957C15.4162 14.755 15.5365 14.4809 15.5365 14.1952V13.011H16.7907C17.0933 13.011 17.3835 12.8975 17.5975 12.6954C17.8115 12.4934 17.9317 12.2194 17.9317 11.9336C17.9317 11.6479 17.8115 11.3739 17.5975 11.1718C17.3835 10.9698 17.0933 10.8563 16.7907 10.8563H15.5365V9.67205C15.5365 9.38632 15.4162 9.11229 15.2022 8.91025C14.9883 8.70821 14.698 8.5947 14.3954 8.5947Z" fill="white"/>
</svg>
