<svg width="24" height="24" viewBox="0 0 24 24" fill="none" xmlns="http://www.w3.org/2000/svg">
<g clip-path="url(#clip0_20_120)">
<path fill-rule="evenodd" clip-rule="evenodd" d="M10.9286 0H5.98114C5.31154 0.0235666 4.66045 0.225984 4.09552 0.586228C3.53058 0.946472 3.07241 1.4514 2.76857 2.04857L0 7.38514V7.41257H10.9286V0ZM0 22.1537V9.55543H24V22.1554C23.9995 22.6448 23.8048 23.114 23.4586 23.4598C23.1124 23.8057 22.6431 24 22.1537 24H1.84629C1.35662 24 0.88701 23.8055 0.540765 23.4592C0.194519 23.113 0 22.6434 0 22.1537ZM24 7.38514V7.41257H13.0714V0H18.0189C18.7043 0.00719215 19.3747 0.201909 19.9573 0.563035C20.54 0.92416 21.0126 1.43791 21.324 2.04857L24 7.38514ZM12 11.1429C12.341 11.1429 12.668 11.2783 12.9091 11.5194C13.1503 11.7606 13.2857 12.0876 13.2857 12.4286V15.4286H16.2857C16.6267 15.4286 16.9537 15.564 17.1949 15.8051C17.436 16.0463 17.5714 16.3733 17.5714 16.7143C17.5714 17.0553 17.436 17.3823 17.1949 17.6234C16.9537 17.8645 16.6267 18 16.2857 18H13.2857V21C13.2857 21.341 13.1503 21.668 12.9091 21.9091C12.668 22.1503 12.341 22.2857 12 22.2857C11.659 22.2857 11.332 22.1503 11.0909 21.9091C10.8497 21.668 10.7143 21.341 10.7143 21V18H7.71429C7.37329 18 7.04627 17.8645 6.80515 17.6234C6.56403 17.3823 6.42857 17.0553 6.42857 16.7143C6.42857 16.3733 6.56403 16.0463 6.80515 15.8051C7.04627 15.564 7.37329 15.4286 7.71429 15.4286H10.7143V12.4286C10.7143 12.0876 10.8497 11.7606 11.0909 11.5194C11.332 11.2783 11.659 11.1429 12 11.1429Z" fill="white"/>
</g>
<defs>
<clipPath id="clip0_20_120">
<rect width="24" height="24" fill="white"/>
</clipPath>
</defs>
</svg>
