<svg width="33" height="32" viewBox="0 0 33 32" fill="none" xmlns="http://www.w3.org/2000/svg">
<path d="M22.1301 6.57275C22.2416 6.30364 22.3276 6.14727 22.3288 5.92302C22.3291 5.81153 22.3073 5.70109 22.2647 5.59804C22.2221 5.49499 22.1597 5.40136 22.0808 5.32253C22.002 5.24369 21.9083 5.1812 21.8053 5.13863C21.7023 5.09607 21.5918 5.07427 21.4803 5.07449C21.2561 5.0757 21.1518 5.04661 20.7967 5.23935C20.4439 5.43208 2.65148 14.235 2.65148 14.235C2.36707 14.3748 2.12748 14.5914 1.95985 14.8603C1.79221 15.1293 1.70323 15.4398 1.70298 15.7567C1.70273 16.0736 1.79121 16.3843 1.95842 16.6535C2.12562 16.9227 2.36487 17.1397 2.64906 17.28C2.64906 17.28 20.6427 26.0683 20.8803 26.1944C21.1179 26.3204 21.3203 26.3774 21.5458 26.3774C21.7708 26.3774 21.9866 26.288 22.1458 26.1289C22.3049 25.9697 22.3943 25.7539 22.3943 25.5289C22.3931 25.3046 22.3543 25.2149 22.1919 24.8828L17.7626 15.7502C17.7626 15.7502 22.0197 6.84064 22.1301 6.57275Z" stroke="#13299D" stroke-width="1.71429" stroke-linecap="round" stroke-linejoin="round"/>
</svg>
