<svg width="32" height="32" viewBox="0 0 32 32" fill="none" xmlns="http://www.w3.org/2000/svg">
<path d="M10.3863 24.9436C10.2748 25.2127 10.1887 25.3691 10.1875 25.5933C10.1873 25.7048 10.2091 25.8153 10.2516 25.9183C10.2942 26.0214 10.3567 26.115 10.4355 26.1938C10.5144 26.2727 10.608 26.3352 10.7111 26.3777C10.8141 26.4203 10.9245 26.4421 11.036 26.4419C11.2603 26.4407 11.3645 26.4697 11.7197 26.277C12.0725 26.0843 29.8649 17.2814 29.8649 17.2814C30.1493 17.1416 30.3889 16.925 30.5565 16.656C30.7241 16.3871 30.8131 16.0766 30.8134 15.7597C30.8136 15.4427 30.7251 15.1321 30.5579 14.8629C30.3907 14.5937 30.1515 14.3766 29.8673 14.2364C29.8673 14.2364 11.8737 5.44807 11.6361 5.322C11.3985 5.19594 11.196 5.13896 10.9706 5.13896C10.7455 5.13897 10.5297 5.22838 10.3706 5.3875C10.2115 5.54663 10.1221 5.76245 10.1221 5.98749C10.1233 6.21175 10.1621 6.30145 10.3245 6.63359L14.7538 15.7662C14.7538 15.7662 10.4966 24.6757 10.3863 24.9436Z" stroke="#13299D" stroke-width="1.71429" stroke-linecap="round" stroke-linejoin="round"/>
</svg>
