<svg width="24" height="24" viewBox="0 0 24 24" fill="none" xmlns="http://www.w3.org/2000/svg">
<path fill-rule="evenodd" clip-rule="evenodd" d="M12 24C15.1826 24 18.2348 22.7357 20.4853 20.4853C22.7357 18.2348 24 15.1826 24 12C24 8.8174 22.7357 5.76515 20.4853 3.51472C18.2348 1.26428 15.1826 0 12 0C8.8174 0 5.76515 1.26428 3.51472 3.51472C1.26428 5.76515 0 8.8174 0 12C0 15.1826 1.26428 18.2348 3.51472 20.4853C5.76515 22.7357 8.8174 24 12 24ZM17.3931 14.2457L12.6051 19.0337C12.4444 19.1944 12.2264 19.2847 11.9991 19.2847C11.7719 19.2847 11.5539 19.1944 11.3931 19.0337L6.60686 14.2457C6.48737 14.1258 6.40603 13.9733 6.37312 13.8073C6.3402 13.6413 6.35717 13.4692 6.42189 13.3128C6.48661 13.1564 6.59618 13.0227 6.73679 12.9285C6.8774 12.8343 7.04275 12.7838 7.212 12.7834H10.2857V6.42857C10.2857 5.97391 10.4663 5.53788 10.7878 5.21639C11.1093 4.8949 11.5453 4.71429 12 4.71429C12.4547 4.71429 12.8907 4.8949 13.2122 5.21639C13.5337 5.53788 13.7143 5.97391 13.7143 6.42857V12.7834H16.788C16.9573 12.7838 17.1226 12.8343 17.2632 12.9285C17.4038 13.0227 17.5134 13.1564 17.5781 13.3128C17.6428 13.4692 17.6598 13.6413 17.6269 13.8073C17.594 13.9733 17.5126 14.1258 17.3931 14.2457Z" fill="#13299D"/>
</svg>
