<svg width="24" height="24" viewBox="0 0 24 24" fill="none" xmlns="http://www.w3.org/2000/svg">
<path fill-rule="evenodd" clip-rule="evenodd" d="M2.09314 0C1.53846 0 1.0065 0.220346 0.61428 0.612565C0.222061 1.00478 0.00171429 1.53675 0.00171429 2.09143V8.544C0.00171429 8.88499 0.137173 9.21202 0.378291 9.45314C0.619409 9.69426 0.946436 9.82972 1.28743 9.82972C1.62842 9.82972 1.95545 9.69426 2.19657 9.45314C2.43768 9.21202 2.57314 8.88499 2.57314 8.544V2.57143H8.54057C8.70941 2.57143 8.8766 2.53817 9.03259 2.47356C9.18858 2.40895 9.33032 2.31424 9.44971 2.19485C9.5691 2.07546 9.6638 1.93373 9.72842 1.77774C9.79303 1.62175 9.82628 1.45456 9.82628 1.28571C9.82628 1.11687 9.79303 0.949683 9.72842 0.793693C9.6638 0.637703 9.5691 0.495967 9.44971 0.376577C9.33032 0.257187 9.18858 0.162482 9.03259 0.0978692C8.8766 0.033256 8.70941 -2.51595e-09 8.54057 0H2.09314ZM14.9931 0C14.6521 0 14.3251 0.135459 14.084 0.376577C13.8429 0.617695 13.7074 0.944722 13.7074 1.28571C13.7074 1.62671 13.8429 1.95373 14.084 2.19485C14.3251 2.43597 14.6521 2.57143 14.9931 2.57143H20.964V8.54229C20.964 8.88328 21.0995 9.21031 21.3406 9.45142C21.5817 9.69254 21.9087 9.828 22.2497 9.828C22.5907 9.828 22.9177 9.69254 23.1588 9.45142C23.4 9.21031 23.5354 8.88328 23.5354 8.54229V2.09143C23.5354 1.53675 23.3151 1.00478 22.9229 0.612565C22.5306 0.220346 21.9987 0 21.444 0H14.9914H14.9931ZM22.2497 13.7057C22.5907 13.7057 22.9177 13.8412 23.1588 14.0823C23.4 14.3234 23.5354 14.6504 23.5354 14.9914V21.4423C23.5354 21.7169 23.4813 21.9889 23.3762 22.2426C23.2711 22.4964 23.1171 22.7269 22.9229 22.9212C22.7287 23.1154 22.4981 23.2694 22.2444 23.3745C21.9906 23.4796 21.7186 23.5337 21.444 23.5337H14.9914C14.6504 23.5337 14.3234 23.3983 14.0823 23.1571C13.8412 22.916 13.7057 22.589 13.7057 22.248C13.7057 21.907 13.8412 21.58 14.0823 21.3389C14.3234 21.0977 14.6504 20.9623 14.9914 20.9623H20.9623V14.9914C20.9623 14.6504 21.0977 14.3234 21.3389 14.0823C21.58 13.8412 21.907 13.7057 22.248 13.7057H22.2497ZM2.57143 14.9914C2.57143 14.8226 2.53817 14.6554 2.47356 14.4994C2.40895 14.3434 2.31424 14.2017 2.19485 14.0823C2.07546 13.9629 1.93373 13.8682 1.77774 13.8036C1.62175 13.739 1.45456 13.7057 1.28571 13.7057C1.11687 13.7057 0.949683 13.739 0.793693 13.8036C0.637703 13.8682 0.495967 13.9629 0.376577 14.0823C0.257187 14.2017 0.162482 14.3434 0.0978692 14.4994C0.033256 14.6554 -2.51595e-09 14.8226 0 14.9914V21.4423C0 21.997 0.220346 22.5289 0.612565 22.9212C1.00478 23.3134 1.53675 23.5337 2.09143 23.5337H8.54229C8.88328 23.5337 9.2103 23.3983 9.45142 23.1571C9.69254 22.916 9.828 22.589 9.828 22.248C9.828 21.907 9.69254 21.58 9.45142 21.3389C9.2103 21.0977 8.88328 20.9623 8.54229 20.9623H2.57143V14.9914ZM17.952 5.39486C18.5451 5.39486 19.0234 5.87486 19.0234 6.46629V17.0674C19.0234 17.3516 18.9105 17.6241 18.7096 17.825C18.5087 18.026 18.2362 18.1389 17.952 18.1389C17.6678 18.1389 17.3953 18.026 17.1944 17.825C16.9935 17.6241 16.8806 17.3516 16.8806 17.0674V6.46629C16.8806 5.87486 17.3606 5.39486 17.952 5.39486ZM4.30457 6.46629C4.30457 6.18213 4.41745 5.9096 4.61839 5.70867C4.81932 5.50774 5.09184 5.39486 5.376 5.39486C5.66016 5.39486 5.93268 5.50774 6.13361 5.70867C6.33455 5.9096 6.44743 6.18213 6.44743 6.46629V17.0674C6.44743 17.3516 6.33455 17.6241 6.13361 17.825C5.93268 18.026 5.66016 18.1389 5.376 18.1389C5.09184 18.1389 4.81932 18.026 4.61839 17.825C4.41745 17.6241 4.30457 17.3516 4.30457 17.0674V6.46629ZM14.1103 5.39486C14.7034 5.39486 15.1834 5.87486 15.1834 6.46629V12.6514C15.1834 12.9356 15.0705 13.2081 14.8696 13.409C14.6687 13.61 14.3962 13.7229 14.112 13.7229C13.8278 13.7229 13.5553 13.61 13.3544 13.409C13.1535 13.2081 13.0406 12.9356 13.0406 12.6514V6.46629C13.0406 5.87486 13.5206 5.39486 14.112 5.39486H14.1103ZM13.0406 17.0691C13.0406 17.3533 13.1535 17.6258 13.3544 17.8268C13.5553 18.0277 13.8278 18.1406 14.112 18.1406C14.3962 18.1406 14.6687 18.0277 14.8696 17.8268C15.0705 17.6258 15.1834 17.3533 15.1834 17.0691V16.584C15.1834 16.2998 15.0705 16.0273 14.8696 15.8264C14.6687 15.6255 14.3962 15.5126 14.112 15.5126C13.8278 15.5126 13.5553 15.6255 13.3544 15.8264C13.1535 16.0273 13.0406 16.2998 13.0406 16.584V17.0657V17.0691ZM9.64628 5.39486C10.236 5.39486 10.716 5.87486 10.716 6.46629V12.6514C10.716 12.9356 10.6031 13.2081 10.4022 13.409C10.2013 13.61 9.92873 13.7229 9.64457 13.7229C9.36041 13.7229 9.08789 13.61 8.88696 13.409C8.68602 13.2081 8.57314 12.9356 8.57314 12.6514V6.46629C8.57314 5.87486 9.05486 5.39486 9.64628 5.39486ZM8.57314 17.0691C8.57314 17.3533 8.68602 17.6258 8.88696 17.8268C9.08789 18.0277 9.36041 18.1406 9.64457 18.1406C9.92873 18.1406 10.2013 18.0277 10.4022 17.8268C10.6031 17.6258 10.716 17.3533 10.716 17.0691V16.584C10.716 16.2998 10.6031 16.0273 10.4022 15.8264C10.2013 15.6255 9.92873 15.5126 9.64457 15.5126C9.36041 15.5126 9.08789 15.6255 8.88696 15.8264C8.68602 16.0273 8.57314 16.2998 8.57314 16.584V17.0657V17.0691Z" fill="#13299D"/>
</svg>
