<svg width="24" height="24" viewBox="0 0 24 24" fill="none" xmlns="http://www.w3.org/2000/svg">
<path fill-rule="evenodd" clip-rule="evenodd" d="M2.43262 0.233154C1.87794 0.233154 1.34598 0.453501 0.953757 0.84572C0.561538 1.23794 0.341192 1.7699 0.341192 2.32458V8.77715C0.341192 9.11815 0.476651 9.44517 0.717769 9.68629C0.958887 9.92741 1.28591 10.0629 1.62691 10.0629C1.9679 10.0629 2.29493 9.92741 2.53604 9.68629C2.77716 9.44517 2.91262 9.11815 2.91262 8.77715V2.80458H8.88005C9.04889 2.80458 9.21608 2.77133 9.37207 2.70671C9.52806 2.6421 9.6698 2.5474 9.78919 2.42801C9.90858 2.30862 10.0033 2.16688 10.0679 2.01089C10.1325 1.8549 10.1658 1.68771 10.1658 1.51887C10.1658 1.35003 10.1325 1.18284 10.0679 1.02685C10.0033 0.870857 9.90858 0.729121 9.78919 0.609731C9.6698 0.490342 9.52806 0.395637 9.37207 0.331023C9.21608 0.26641 9.04889 0.233154 8.88005 0.233154H2.43262ZM15.3326 0.233154C14.9916 0.233154 14.6646 0.368613 14.4235 0.609731C14.1824 0.85085 14.0469 1.17788 14.0469 1.51887C14.0469 1.85986 14.1824 2.18689 14.4235 2.42801C14.6646 2.66912 14.9916 2.80458 15.3326 2.80458H21.3035V8.77544C21.3035 9.11643 21.4389 9.44346 21.6801 9.68458C21.9212 9.9257 22.2482 10.0612 22.5892 10.0612C22.9302 10.0612 23.2572 9.9257 23.4983 9.68458C23.7394 9.44346 23.8749 9.11643 23.8749 8.77544V2.32458C23.8749 1.7699 23.6546 1.23794 23.2623 0.84572C22.8701 0.453501 22.3382 0.233154 21.7835 0.233154H15.3309H15.3326ZM22.5892 13.9389C22.9302 13.9389 23.2572 14.0743 23.4983 14.3154C23.7394 14.5566 23.8749 14.8836 23.8749 15.2246V21.6754C23.8749 21.9501 23.8208 22.2221 23.7157 22.4758C23.6106 22.7295 23.4565 22.9601 23.2623 23.1543C23.0681 23.3485 22.8376 23.5026 22.5838 23.6077C22.3301 23.7128 22.0581 23.7669 21.7835 23.7669H15.3309C14.9899 23.7669 14.6629 23.6314 14.4218 23.3903C14.1807 23.1492 14.0452 22.8222 14.0452 22.4812C14.0452 22.1402 14.1807 21.8131 14.4218 21.572C14.6629 21.3309 14.9899 21.1954 15.3309 21.1954H21.3018V15.2246C21.3018 14.8836 21.4372 14.5566 21.6783 14.3154C21.9195 14.0743 22.2465 13.9389 22.5875 13.9389H22.5892ZM2.91091 15.2246C2.91091 15.0557 2.87765 14.8886 2.81304 14.7326C2.74842 14.5766 2.65372 14.4348 2.53433 14.3154C2.41494 14.1961 2.2732 14.1014 2.11721 14.0367C1.96122 13.9721 1.79403 13.9389 1.62519 13.9389C1.45635 13.9389 1.28916 13.9721 1.13317 14.0367C0.97718 14.1014 0.835444 14.1961 0.716055 14.3154C0.596665 14.4348 0.50196 14.5766 0.437347 14.7326C0.372734 14.8886 0.339478 15.0557 0.339478 15.2246V21.6754C0.339478 22.2301 0.559824 22.7621 0.952043 23.1543C1.34426 23.5465 1.87622 23.7669 2.43091 23.7669H8.88176C9.22276 23.7669 9.54978 23.6314 9.7909 23.3903C10.032 23.1492 10.1675 22.8222 10.1675 22.4812C10.1675 22.1402 10.032 21.8131 9.7909 21.572C9.54978 21.3309 9.22276 21.1954 8.88176 21.1954H2.91091V15.2246ZM18.2915 5.62801C18.8846 5.62801 19.3629 6.10801 19.3629 6.69944V17.3006C19.3629 17.5847 19.25 17.8573 19.0491 18.0582C18.8482 18.2591 18.5756 18.372 18.2915 18.372C18.0073 18.372 17.7348 18.2591 17.5339 18.0582C17.3329 17.8573 17.22 17.5847 17.22 17.3006V6.69944C17.22 6.10801 17.7 5.62801 18.2915 5.62801ZM4.64405 6.69944C4.64405 6.41528 4.75693 6.14276 4.95786 5.94183C5.15879 5.74089 5.43132 5.62801 5.71548 5.62801C5.99964 5.62801 6.27216 5.74089 6.47309 5.94183C6.67402 6.14276 6.78691 6.41528 6.78691 6.69944V17.3006C6.78691 17.5847 6.67402 17.8573 6.47309 18.0582C6.27216 18.2591 5.99964 18.372 5.71548 18.372C5.43132 18.372 5.15879 18.2591 4.95786 18.0582C4.75693 17.8573 4.64405 17.5847 4.64405 17.3006V6.69944ZM14.4498 5.62801C15.0429 5.62801 15.5229 6.10801 15.5229 6.69944V12.8846C15.5229 13.1687 15.41 13.4413 15.2091 13.6422C15.0082 13.8431 14.7356 13.956 14.4515 13.956C14.1673 13.956 13.8948 13.8431 13.6939 13.6422C13.4929 13.4413 13.38 13.1687 13.38 12.8846V6.69944C13.38 6.10801 13.86 5.62801 14.4515 5.62801H14.4498ZM13.38 17.3023C13.38 17.5865 13.4929 17.859 13.6939 18.0599C13.8948 18.2608 14.1673 18.3737 14.4515 18.3737C14.7356 18.3737 15.0082 18.2608 15.2091 18.0599C15.41 17.859 15.5229 17.5865 15.5229 17.3023V16.8172C15.5229 16.533 15.41 16.2605 15.2091 16.0595C15.0082 15.8586 14.7356 15.7457 14.4515 15.7457C14.1673 15.7457 13.8948 15.8586 13.6939 16.0595C13.4929 16.2605 13.38 16.533 13.38 16.8172V17.2989V17.3023ZM9.98576 5.62801C10.5755 5.62801 11.0555 6.10801 11.0555 6.69944V12.8846C11.0555 13.1687 10.9426 13.4413 10.7417 13.6422C10.5407 13.8431 10.2682 13.956 9.98405 13.956C9.69989 13.956 9.42737 13.8431 9.22643 13.6422C9.0255 13.4413 8.91262 13.1687 8.91262 12.8846V6.69944C8.91262 6.10801 9.39433 5.62801 9.98576 5.62801ZM8.91262 17.3023C8.91262 17.5865 9.0255 17.859 9.22643 18.0599C9.42737 18.2608 9.69989 18.3737 9.98405 18.3737C10.2682 18.3737 10.5407 18.2608 10.7417 18.0599C10.9426 17.859 11.0555 17.5865 11.0555 17.3023V16.8172C11.0555 16.533 10.9426 16.2605 10.7417 16.0595C10.5407 15.8586 10.2682 15.7457 9.98405 15.7457C9.69989 15.7457 9.42737 15.8586 9.22643 16.0595C9.0255 16.2605 8.91262 16.533 8.91262 16.8172V17.2989V17.3023Z" fill="white"/>
</svg>
