<svg width="24" height="24" viewBox="0 0 24 24" fill="none" xmlns="http://www.w3.org/2000/svg">
<path fill-rule="evenodd" clip-rule="evenodd" d="M2.92623 0.502216C2.60292 0.189945 2.16988 0.017155 1.7204 0.0210609C1.27092 0.0249668 0.840958 0.205256 0.523116 0.523099C0.205273 0.840941 0.0249834 1.27091 0.0210776 1.72039C0.0171717 2.16987 0.189962 2.6029 0.502233 2.92622L9.57595 11.9999L0.502233 21.0736C0.338501 21.2318 0.207903 21.4209 0.118059 21.6301C0.0282152 21.8392 -0.0190755 22.0642 -0.0210534 22.2918C-0.0230314 22.5194 0.0203429 22.7452 0.106539 22.9559C0.192735 23.1665 0.320026 23.3579 0.480985 23.5189C0.641943 23.6799 0.833347 23.8071 1.04403 23.8933C1.25471 23.9795 1.48044 24.0229 1.70806 24.0209C1.93569 24.019 2.16063 23.9717 2.36978 23.8818C2.57893 23.792 2.7681 23.6614 2.92623 23.4976L11.9999 14.4239L21.0737 23.4976C21.397 23.8099 21.83 23.9827 22.2795 23.9788C22.729 23.9749 23.1589 23.7946 23.4768 23.4768C23.7946 23.1589 23.9749 22.729 23.9788 22.2795C23.9827 21.83 23.8099 21.397 23.4977 21.0736L14.4239 11.9999L23.4977 2.92622C23.8099 2.6029 23.9827 2.16987 23.9788 1.72039C23.9749 1.27091 23.7946 0.840941 23.4768 0.523099C23.1589 0.205256 22.729 0.0249668 22.2795 0.0210609C21.83 0.017155 21.397 0.189945 21.0737 0.502216L11.9999 9.57593L2.92623 0.502216Z" fill="white"/>
</svg>
