<svg width="26" height="26" viewBox="0 0 26 26" fill="none" xmlns="http://www.w3.org/2000/svg">
<path d="M20.3296 25.0002C20.0843 25.0002 19.8489 24.903 19.6754 24.7298C19.5019 24.5567 19.4044 24.3219 19.4044 24.0771C19.4044 23.8323 19.5019 23.5975 19.6754 23.4244C19.8489 23.2513 20.0843 23.1541 20.3296 23.1541C20.575 23.1541 20.8103 23.2513 20.9839 23.4244C21.1574 23.5975 21.2548 23.8323 21.2548 24.0771C21.2548 24.3219 21.1574 24.5567 20.9839 24.7298C20.8103 24.903 20.575 25.0002 20.3296 25.0002Z" stroke="#888888" stroke-width="1.71429" stroke-linecap="round" stroke-linejoin="round"/>
<path d="M8.3018 25.0002C8.05642 25.0002 7.82109 24.903 7.64758 24.7298C7.47406 24.5567 7.37659 24.3219 7.37659 24.0771C7.37659 23.8323 7.47406 23.5975 7.64758 23.4244C7.82109 23.2513 8.05642 23.1541 8.3018 23.1541C8.54718 23.1541 8.78251 23.2513 8.95603 23.4244C9.12954 23.5975 9.22701 23.8323 9.22701 24.0771C9.22701 24.3219 9.12954 24.5567 8.95603 24.7298C8.78251 24.903 8.54718 25.0002 8.3018 25.0002Z" stroke="#888888" stroke-width="1.71429" stroke-linecap="round" stroke-linejoin="round"/>
<path d="M1 1H5.62607L6.11273 5.61538M6.11273 5.61538L7.30256 16.8862C7.35054 17.3396 7.56498 17.7592 7.90458 18.0643C8.24418 18.3693 8.68491 18.5382 9.14188 18.5385H20.8366C21.2491 18.5385 21.6498 18.4009 21.975 18.1477C22.3002 17.8945 22.5313 17.5401 22.6315 17.1409L24.9445 7.91015C25.0129 7.63794 25.0181 7.35376 24.9599 7.07922C24.9016 6.80468 24.7814 6.54699 24.6084 6.32576C24.4353 6.10453 24.214 5.92556 23.9612 5.80247C23.7085 5.67937 23.4309 5.61539 23.1496 5.61538H6.11273Z" stroke="#888888" stroke-width="1.71429" stroke-linecap="round" stroke-linejoin="round"/>
<path d="M17.8463 12.0769H12.295" stroke="#888888" stroke-width="1.71429" stroke-linecap="round" stroke-linejoin="round"/>
</svg>
