<svg width="24" height="24" viewBox="0 0 24 24" fill="none" xmlns="http://www.w3.org/2000/svg">
<path fill-rule="evenodd" clip-rule="evenodd" d="M5.61941 0.00172377C5.95878 0.00182655 6.28601 0.120918 6.53766 0.335903C6.7893 0.550888 6.94743 0.846448 6.98136 1.16527L7.50168 6.0487H21.2837C21.7157 6.03405 22.1449 6.12087 22.5327 6.30138C22.9204 6.48189 23.2547 6.75044 23.5055 7.08296C23.7472 7.39911 23.9061 7.76481 23.9692 8.15012C24.0324 8.53543 23.998 8.92939 23.8688 9.29972L21.6068 15.7207V15.7242C21.4262 16.2306 21.0763 16.6679 20.6097 16.9704C20.1432 17.2729 19.5853 17.4241 19.0198 17.4014H8.33784C7.70133 17.4068 7.08465 17.1926 6.6036 16.799C6.12255 16.4054 5.81024 15.8596 5.7253 15.264L4.8435 6.99504C4.84064 6.96525 4.83942 6.93533 4.83985 6.90541L4.37978 2.58565H1.36925C1.0061 2.58565 0.657829 2.44944 0.401045 2.20699C0.14426 1.96454 0 1.6357 0 1.29282C0 0.949946 0.14426 0.621111 0.401045 0.37866C0.657829 0.136208 1.0061 5.10929e-09 1.36925 0H5.61941V0.00172377ZM18.673 19.9388C18.9554 19.9388 19.235 19.9913 19.496 20.0934C19.7569 20.1954 19.994 20.345 20.1937 20.5336C20.3934 20.7221 20.5518 20.946 20.6599 21.1923C20.768 21.4387 20.8236 21.7027 20.8236 21.9694C20.8236 22.2361 20.768 22.5001 20.6599 22.7465C20.5518 22.9928 20.3934 23.2167 20.1937 23.4053C19.994 23.5938 19.7569 23.7434 19.496 23.8454C19.235 23.9475 18.9554 24 18.673 24C18.1026 24 17.5555 23.7861 17.1522 23.4053C16.7489 23.0244 16.5223 22.508 16.5223 21.9694C16.5223 21.4309 16.7489 20.9144 17.1522 20.5336C17.5555 20.1527 18.1026 19.9388 18.673 19.9388ZM11.4269 21.9694C11.4353 21.6979 11.3858 21.4275 11.2816 21.1743C11.1773 20.9212 11.0203 20.6903 10.8199 20.4955C10.6194 20.3006 10.3796 20.1457 10.1146 20.0399C9.84962 19.9342 9.56484 19.8797 9.27714 19.8797C8.98944 19.8797 8.70467 19.9342 8.43968 20.0399C8.17469 20.1457 7.93487 20.3006 7.73442 20.4955C7.53397 20.6903 7.37697 20.9212 7.2727 21.1743C7.16844 21.4275 7.11903 21.6979 7.12742 21.9694C7.14372 22.4975 7.37735 22.9988 7.77873 23.3669C8.1801 23.7349 8.71761 23.9408 9.27714 23.9408C9.83668 23.9408 10.3742 23.7349 10.7756 23.3669C11.1769 22.9988 11.4106 22.4975 11.4269 21.9694ZM17.4607 10.4753C17.5506 10.3621 17.616 10.2333 17.6532 10.0963C17.6904 9.95924 17.6986 9.81661 17.6774 9.67656C17.6563 9.5365 17.6061 9.40175 17.5297 9.28001C17.4534 9.15827 17.3524 9.05192 17.2325 8.96703C17.1126 8.88214 16.9762 8.82038 16.8311 8.78527C16.6859 8.75016 16.5348 8.74238 16.3865 8.76239C16.2382 8.7824 16.0955 8.8298 15.9665 8.90188C15.8376 8.97396 15.7249 9.06932 15.635 9.1825L13.2818 12.1508L12.1681 11.3631C12.0482 11.2782 11.9118 11.2164 11.7667 11.1813C11.6215 11.1462 11.4704 11.1384 11.3221 11.1584C11.1738 11.1784 11.031 11.2258 10.9021 11.2979C10.7732 11.37 10.6605 11.4654 10.5706 11.5785C10.4807 11.6917 10.4153 11.8205 10.3781 11.9576C10.3409 12.0946 10.3327 12.2373 10.3539 12.3773C10.3751 12.5174 10.4253 12.6521 10.5016 12.7739C10.578 12.8956 10.679 13.0019 10.7988 13.0868L12.8272 14.521C12.947 14.6059 13.0834 14.6677 13.2286 14.7028C13.3738 14.7379 13.5248 14.7457 13.6732 14.7257C13.8215 14.7056 13.9642 14.6582 14.0931 14.5862C14.2221 14.5141 14.3347 14.4187 14.4246 14.3055L17.4607 10.4788V10.4753Z" fill="white"/>
</svg>
