<svg width="24" height="24" viewBox="0 0 24 24" fill="none" xmlns="http://www.w3.org/2000/svg">
<g clip-path="url(#clip0_17_59)">
<path fill-rule="evenodd" clip-rule="evenodd" d="M7.71429 1.71429C7.71429 1.25963 7.53367 0.823594 7.21218 0.502103C6.89069 0.180612 6.45466 0 6 0C5.54534 0 5.10931 0.180612 4.78782 0.502103C4.46633 0.823594 4.28571 1.25963 4.28571 1.71429V3.42857H2.57143C1.88944 3.42857 1.23539 3.69949 0.753154 4.18173C0.270918 4.66396 0 5.31801 0 6L0 8.57143H24V6C24 5.31801 23.7291 4.66396 23.2468 4.18173C22.7646 3.69949 22.1106 3.42857 21.4286 3.42857H19.7143V1.71429C19.7143 1.25963 19.5337 0.823594 19.2122 0.502103C18.8907 0.180612 18.4547 0 18 0C17.5453 0 17.1093 0.180612 16.7878 0.502103C16.4663 0.823594 16.2857 1.25963 16.2857 1.71429V3.42857H7.71429V1.71429ZM24 10.7143H0V21.4286C0 22.1106 0.270918 22.7646 0.753154 23.2468C1.23539 23.7291 1.88944 24 2.57143 24H21.4286C22.1106 24 22.7646 23.7291 23.2468 23.2468C23.7291 22.7646 24 22.1106 24 21.4286V10.7143Z" fill="#13299D"/>
</g>
<defs>
<clipPath id="clip0_17_59">
<rect width="24" height="24" fill="white"/>
</clipPath>
</defs>
</svg>
