<svg width="25" height="20" viewBox="0 0 25 20" fill="none" xmlns="http://www.w3.org/2000/svg">
<path d="M22.043 1.02222H3.18584C2.73119 1.02222 2.29515 1.20283 1.97366 1.52432C1.65217 1.84581 1.47156 2.28185 1.47156 2.7365V17.3079C1.47156 17.7626 1.65217 18.1986 1.97366 18.5201C2.29515 18.8416 2.73119 19.0222 3.18584 19.0222H22.043C22.4976 19.0222 22.9337 18.8416 23.2552 18.5201C23.5767 18.1986 23.7573 17.7626 23.7573 17.3079V2.7365C23.7573 2.28185 23.5767 1.84581 23.2552 1.52432C22.9337 1.20283 22.4976 1.02222 22.043 1.02222Z" stroke="#13299D" stroke-width="1.71429" stroke-linecap="round" stroke-linejoin="round"/>
<path d="M1.47156 3.16504L11.5173 9.20618C11.8258 9.3879 12.2133 9.48561 12.6144 9.48561C13.0156 9.48561 13.403 9.3879 13.7116 9.20618L23.7573 3.16504" stroke="#13299D" stroke-width="1.71429" stroke-linecap="round" stroke-linejoin="round"/>
</svg>
