<svg width="24" height="18" viewBox="0 0 24 18" fill="none" xmlns="http://www.w3.org/2000/svg">
<path d="M22.68 7.70736C22.9646 8.06222 23.1223 8.52336 23.1223 8.99993C23.1223 9.47822 22.9646 9.93764 22.68 10.2925C20.88 12.4714 16.7829 16.7142 12 16.7142C7.21716 16.7142 3.12001 12.4714 1.32001 10.2925C1.03062 9.92408 0.874703 9.46841 0.877729 8.99993C0.877729 8.52336 1.03544 8.06222 1.32001 7.70736C3.12001 5.5285 7.21716 1.28564 12 1.28564C16.7829 1.28564 20.88 5.5285 22.68 7.70736Z" stroke="#13299D" stroke-width="1.71429" stroke-linecap="round" stroke-linejoin="round"/>
<path d="M12 12.4284C12.9093 12.4284 13.7814 12.0672 14.4243 11.4242C15.0673 10.7812 15.4286 9.90917 15.4286 8.99986C15.4286 8.09055 15.0673 7.21848 14.4243 6.57549C13.7814 5.93251 12.9093 5.57129 12 5.57129C11.0907 5.57129 10.2186 5.93251 9.57562 6.57549C8.93263 7.21848 8.57141 8.09055 8.57141 8.99986C8.57141 9.90917 8.93263 10.7812 9.57562 11.4242C10.2186 12.0672 11.0907 12.4284 12 12.4284Z" stroke="#13299D" stroke-width="1.71429" stroke-linecap="round" stroke-linejoin="round"/>
</svg>
