<svg width="15" height="15" viewBox="0 0 15 15" fill="none" xmlns="http://www.w3.org/2000/svg">
<path d="M7.50001 14.4642C9.34705 14.4642 11.1184 13.7305 12.4245 12.4244C13.7306 11.1184 14.4643 9.34697 14.4643 7.49993C14.4643 5.65289 13.7306 3.88149 12.4245 2.57544C11.1184 1.26938 9.34705 0.535645 7.50001 0.535645C5.65296 0.535645 3.88157 1.26938 2.57551 2.57544C1.26946 3.88149 0.535721 5.65289 0.535721 7.49993C0.535721 9.34697 1.26946 11.1184 2.57551 12.4244C3.88157 13.7305 5.65296 14.4642 7.50001 14.4642Z" stroke="white" stroke-width="1.71429" stroke-linecap="round" stroke-linejoin="round"/>
<path d="M5.89287 10.7141H9.10715" stroke="white" stroke-width="1.71429" stroke-linecap="round" stroke-linejoin="round"/>
<path d="M7.5 10.7141V6.96411H6.42857" stroke="white" stroke-width="1.71429" stroke-linecap="round" stroke-linejoin="round"/>
<path d="M7.5 4.55354C7.42896 4.55354 7.36083 4.52532 7.3106 4.47508C7.26037 4.42485 7.23215 4.35672 7.23215 4.28568C7.23215 4.21464 7.26037 4.14651 7.3106 4.09628C7.36083 4.04604 7.42896 4.01782 7.5 4.01782" stroke="white" stroke-width="1.71429" stroke-linecap="round" stroke-linejoin="round"/>
<path d="M7.5 4.55354C7.57104 4.55354 7.63917 4.52532 7.6894 4.47508C7.73964 4.42485 7.76786 4.35672 7.76786 4.28568C7.76786 4.21464 7.73964 4.14651 7.6894 4.09628C7.63917 4.04604 7.57104 4.01782 7.5 4.01782" stroke="white" stroke-width="1.71429" stroke-linecap="round" stroke-linejoin="round"/>
</svg>
