<svg width="24" height="20" viewBox="0 0 24 20" fill="none" xmlns="http://www.w3.org/2000/svg">
<path fill-rule="evenodd" clip-rule="evenodd" d="M3.42857 2.2857C3.42857 2.74035 3.24796 3.17639 2.92647 3.49788C2.60498 3.81937 2.16894 3.99998 1.71429 3.99998C1.25963 3.99998 0.823594 3.81937 0.502103 3.49788C0.180612 3.17639 0 2.74035 0 2.2857C0 1.83104 0.180612 1.395 0.502103 1.07351C0.823594 0.752023 1.25963 0.571411 1.71429 0.571411C2.16894 0.571411 2.60498 0.752023 2.92647 1.07351C3.24796 1.395 3.42857 1.83104 3.42857 2.2857ZM1.71429 11.7143C2.16894 11.7143 2.60498 11.5337 2.92647 11.2122C3.24796 10.8907 3.42857 10.4546 3.42857 9.99998C3.42857 9.54533 3.24796 9.10929 2.92647 8.7878C2.60498 8.46631 2.16894 8.2857 1.71429 8.2857C1.25963 8.2857 0.823594 8.46631 0.502103 8.7878C0.180612 9.10929 0 9.54533 0 9.99998C0 10.4546 0.180612 10.8907 0.502103 11.2122C0.823594 11.5337 1.25963 11.7143 1.71429 11.7143ZM1.71429 19.4286C2.16894 19.4286 2.60498 19.2479 2.92647 18.9265C3.24796 18.605 3.42857 18.1689 3.42857 17.7143C3.42857 17.2596 3.24796 16.8236 2.92647 16.5021C2.60498 16.1806 2.16894 16 1.71429 16C1.25963 16 0.823594 16.1806 0.502103 16.5021C0.180612 16.8236 0 17.2596 0 17.7143C0 18.1689 0.180612 18.605 0.502103 18.9265C0.823594 19.2479 1.25963 19.4286 1.71429 19.4286ZM8.14286 0.999983C7.80186 0.999983 7.47484 1.13544 7.23372 1.37656C6.9926 1.61768 6.85714 1.9447 6.85714 2.2857C6.85714 2.62669 6.9926 2.95372 7.23372 3.19483C7.47484 3.43595 7.80186 3.57141 8.14286 3.57141H22.7143C23.0553 3.57141 23.3823 3.43595 23.6234 3.19483C23.8645 2.95372 24 2.62669 24 2.2857C24 1.9447 23.8645 1.61768 23.6234 1.37656C23.3823 1.13544 23.0553 0.999983 22.7143 0.999983H8.14286ZM6.85714 9.99998C6.85714 9.65899 6.9926 9.33196 7.23372 9.09085C7.47484 8.84973 7.80186 8.71427 8.14286 8.71427H22.7143C23.0553 8.71427 23.3823 8.84973 23.6234 9.09085C23.8645 9.33196 24 9.65899 24 9.99998C24 10.341 23.8645 10.668 23.6234 10.9091C23.3823 11.1502 23.0553 11.2857 22.7143 11.2857H8.14286C7.80186 11.2857 7.47484 11.1502 7.23372 10.9091C6.9926 10.668 6.85714 10.341 6.85714 9.99998ZM8.14286 16.4286C7.80186 16.4286 7.47484 16.564 7.23372 16.8051C6.9926 17.0462 6.85714 17.3733 6.85714 17.7143C6.85714 18.0553 6.9926 18.3823 7.23372 18.6234C7.47484 18.8645 7.80186 19 8.14286 19H22.7143C23.0553 19 23.3823 18.8645 23.6234 18.6234C23.8645 18.3823 24 18.0553 24 17.7143C24 17.3733 23.8645 17.0462 23.6234 16.8051C23.3823 16.564 23.0553 16.4286 22.7143 16.4286H8.14286Z" fill="#13299D"/>
</svg>
