<svg width="24" height="24" viewBox="0 0 24 24" fill="none" xmlns="http://www.w3.org/2000/svg">
<path d="M3.55322 23.1142V18.8628H7.80465" stroke="white" stroke-width="1.71429" stroke-linecap="round" stroke-linejoin="round"/>
<path d="M22.9229 10.0291C23.374 12.4358 23.0133 14.9243 21.8974 17.1039C20.7814 19.2835 18.9734 21.031 16.7571 22.0721C14.5407 23.1132 12.0415 23.389 9.65144 22.8562C7.26141 22.3235 5.11588 21.0123 3.55151 19.1285" stroke="white" stroke-width="1.71429" stroke-linecap="round" stroke-linejoin="round"/>
<path d="M1.18921 14.092C0.738132 11.6852 1.09886 9.19679 2.2148 7.01716C3.33073 4.83754 5.13872 3.09009 7.35507 2.04899C9.57141 1.0079 12.0707 0.732085 14.4607 1.26483C16.8507 1.79758 18.9963 3.10874 20.5606 4.99257" stroke="white" stroke-width="1.71429" stroke-linecap="round" stroke-linejoin="round"/>
<path d="M20.5589 1.00684V5.25826H16.3075" stroke="white" stroke-width="1.71429" stroke-linecap="round" stroke-linejoin="round"/>
</svg>
