<svg width="25" height="25" viewBox="0 0 25 25" fill="none" xmlns="http://www.w3.org/2000/svg">
<path d="M4.20276 23.4892V19.2378H8.45419" stroke="#13299D" stroke-width="1.71429" stroke-linecap="round" stroke-linejoin="round"/>
<path d="M23.5725 10.4041C24.0236 12.8108 23.6628 15.2993 22.5469 17.4789C21.431 19.6585 19.623 21.406 17.4066 22.4471C15.1903 23.4882 12.691 23.764 10.301 23.2312C7.91095 22.6985 5.76542 21.3873 4.20105 19.5035" stroke="#13299D" stroke-width="1.71429" stroke-linecap="round" stroke-linejoin="round"/>
<path d="M1.83875 14.467C1.38767 12.0602 1.7484 9.57179 2.86433 7.39216C3.98027 5.21254 5.78826 3.46509 8.0046 2.42399C10.221 1.3829 12.7202 1.10708 15.1103 1.63983C17.5003 2.17258 19.6458 3.48374 21.2102 5.36757" stroke="#13299D" stroke-width="1.71429" stroke-linecap="round" stroke-linejoin="round"/>
<path d="M21.2085 1.38184V5.63326H16.957" stroke="#13299D" stroke-width="1.71429" stroke-linecap="round" stroke-linejoin="round"/>
</svg>
