<svg width="24" height="24" viewBox="0 0 24 24" fill="none" xmlns="http://www.w3.org/2000/svg">
<g clip-path="url(#clip0_20_130)">
<path fill-rule="evenodd" clip-rule="evenodd" d="M12 24C15.1826 24 18.2348 22.7357 20.4853 20.4853C22.7357 18.2348 24 15.1826 24 12C24 8.8174 22.7357 5.76515 20.4853 3.51472C18.2348 1.26428 15.1826 0 12 0C8.8174 0 5.76515 1.26428 3.51472 3.51472C1.26428 5.76515 0 8.8174 0 12C0 15.1826 1.26428 18.2348 3.51472 20.4853C5.76515 22.7357 8.8174 24 12 24ZM6.85714 10.7143C6.51615 10.7143 6.18912 10.8497 5.94801 11.0909C5.70689 11.332 5.57143 11.659 5.57143 12C5.57143 12.341 5.70689 12.668 5.94801 12.9091C6.18912 13.1503 6.51615 13.2857 6.85714 13.2857H17.1429C17.4839 13.2857 17.8109 13.1503 18.052 12.9091C18.2931 12.668 18.4286 12.341 18.4286 12C18.4286 11.659 18.2931 11.332 18.052 11.0909C17.8109 10.8497 17.4839 10.7143 17.1429 10.7143H6.85714Z" fill="#13299D"/>
</g>
<defs>
<clipPath id="clip0_20_130">
<rect width="24" height="24" fill="white"/>
</clipPath>
</defs>
</svg>
