<svg width="24" height="18" viewBox="0 0 24 18" fill="none" xmlns="http://www.w3.org/2000/svg">
<path fill-rule="evenodd" clip-rule="evenodd" d="M2.57143 0.428467C1.88944 0.428467 1.23539 0.699384 0.753154 1.18162C0.270918 1.66386 0 2.31791 0 2.9999L0 14.9999C0 15.6819 0.270918 16.3359 0.753154 16.8182C1.23539 17.3004 1.88944 17.5713 2.57143 17.5713H21.4286C22.1106 17.5713 22.7646 17.3004 23.2468 16.8182C23.7291 16.3359 24 15.6819 24 14.9999V2.9999C24 2.31791 23.7291 1.66386 23.2468 1.18162C22.7646 0.699384 22.1106 0.428467 21.4286 0.428467H2.57143ZM7.32686 5.35704C6.36071 5.35704 5.43414 5.74084 4.75097 6.42401C4.0678 7.10717 3.684 8.03375 3.684 8.9999C3.684 9.96604 4.0678 10.8926 4.75097 11.5758C5.43414 12.259 6.36071 12.6428 7.32686 12.6428C8.293 12.6428 9.21958 12.259 9.90275 11.5758C10.5859 10.8926 10.9697 9.96604 10.9697 8.9999C10.9697 8.03375 10.5859 7.10717 9.90275 6.42401C9.21958 5.74084 8.293 5.35704 7.32686 5.35704ZM13.8874 6.42847C13.8874 5.83704 14.3674 5.35704 14.9589 5.35704H19.2446C19.5287 5.35704 19.8013 5.46992 20.0022 5.67085C20.2031 5.87178 20.316 6.14431 20.316 6.42847C20.316 6.71263 20.2031 6.98515 20.0022 7.18608C19.8013 7.38701 19.5287 7.4999 19.2446 7.4999H14.9589C14.818 7.50012 14.6785 7.47257 14.5483 7.41883C14.4181 7.36509 14.2998 7.2862 14.2001 7.18669C14.1005 7.08717 14.0214 6.96898 13.9674 6.83888C13.9135 6.70878 13.8874 6.56931 13.8874 6.42847ZM14.9589 10.4999C14.6747 10.4999 14.4022 10.6128 14.2012 10.8137C14.0003 11.0146 13.8874 11.2872 13.8874 11.5713C13.8874 11.8555 14.0003 12.128 14.2012 12.3289C14.4022 12.5299 14.6747 12.6428 14.9589 12.6428H19.2446C19.5287 12.6428 19.8013 12.5299 20.0022 12.3289C20.2031 12.128 20.316 11.8555 20.316 11.5713C20.316 11.2872 20.2031 11.0146 20.0022 10.8137C19.8013 10.6128 19.5287 10.4999 19.2446 10.4999H14.9589Z" fill="#13299D"/>
</svg>
