<svg width="24" height="24" viewBox="0 0 24 24" fill="none" xmlns="http://www.w3.org/2000/svg">
<path d="M8.57148 9.42861C9.70812 9.42861 10.7982 8.97708 11.6019 8.17335C12.4057 7.36962 12.8572 6.27953 12.8572 5.14289C12.8572 4.00625 12.4057 2.91616 11.6019 2.11243C10.7982 1.30871 9.70812 0.857178 8.57148 0.857178C7.43484 0.857178 6.34475 1.30871 5.54102 2.11243C4.7373 2.91616 4.28577 4.00625 4.28577 5.14289C4.28577 6.27953 4.7373 7.36962 5.54102 8.17335C6.34475 8.97708 7.43484 9.42861 8.57148 9.42861Z" stroke="white" stroke-width="1.71429" stroke-linecap="round" stroke-linejoin="round"/>
<path d="M11.1429 21.4287H0.857178V20.4996C0.870824 19.1929 1.21542 17.9111 1.85879 16.7737C2.50215 15.6363 3.42329 14.6806 4.53616 13.9958C5.64903 13.3109 6.91733 12.9193 8.22258 12.8575C9.52783 12.7957 10.8274 13.0658 12 13.6424" stroke="white" stroke-width="1.71429" stroke-linecap="round" stroke-linejoin="round"/>
<path d="M18 12.8572V23.1429" stroke="white" stroke-width="1.71429" stroke-linecap="round" stroke-linejoin="round"/>
<path d="M12.8572 18H23.1429" stroke="white" stroke-width="1.71429" stroke-linecap="round" stroke-linejoin="round"/>
</svg>
