<svg width="20" height="24" viewBox="0 0 20 24" fill="none" xmlns="http://www.w3.org/2000/svg">
<path d="M16.8572 9.42871H3.14287C2.68822 9.42871 2.25218 9.60932 1.93069 9.93081C1.6092 10.2523 1.42859 10.6883 1.42859 11.143V21.4287C1.42859 21.8834 1.6092 22.3194 1.93069 22.6409C2.25218 22.9624 2.68822 23.143 3.14287 23.143H16.8572C17.3118 23.143 17.7479 22.9624 18.0693 22.6409C18.3908 22.3194 18.5714 21.8834 18.5714 21.4287V11.143C18.5714 10.6883 18.3908 10.2523 18.0693 9.93081C17.7479 9.60932 17.3118 9.42871 16.8572 9.42871Z" stroke="#13299D" stroke-width="1.71429" stroke-linecap="round" stroke-linejoin="round"/>
<path d="M16 9.42861V6.85718C16 5.26588 15.3679 3.73976 14.2426 2.61454C13.1174 1.48932 11.5913 0.857178 10 0.857178C8.4087 0.857178 6.88258 1.48932 5.75736 2.61454C4.63214 3.73976 4 5.26588 4 6.85718V9.42861" stroke="#13299D" stroke-width="1.71429" stroke-linecap="round" stroke-linejoin="round"/>
<path d="M9.99997 17.143C10.2273 17.143 10.4453 17.0527 10.6061 16.8919C10.7668 16.7312 10.8571 16.5132 10.8571 16.2859C10.8571 16.0585 10.7668 15.8405 10.6061 15.6798C10.4453 15.519 10.2273 15.4287 9.99997 15.4287C9.77264 15.4287 9.55462 15.519 9.39387 15.6798C9.23313 15.8405 9.14282 16.0585 9.14282 16.2859C9.14282 16.5132 9.23313 16.7312 9.39387 16.8919C9.55462 17.0527 9.77264 17.143 9.99997 17.143Z" stroke="#13299D" stroke-width="1.71429" stroke-linecap="round" stroke-linejoin="round"/>
</svg>
