<svg width="25" height="25" viewBox="0 0 25 25" fill="none" xmlns="http://www.w3.org/2000/svg">
<path d="M8.71429 21.1272L1 23.2872L3.16 15.5729L17.2857 1.51579C17.4454 1.35251 17.636 1.22277 17.8465 1.1342C18.057 1.04563 18.2831 1 18.5114 1C18.7398 1 18.9659 1.04563 19.1763 1.1342C19.3868 1.22277 19.5775 1.35251 19.7371 1.51579L22.7714 4.56722C22.9319 4.7267 23.0593 4.91634 23.1462 5.12522C23.2331 5.33411 23.2778 5.55812 23.2778 5.78436C23.2778 6.0106 23.2331 6.23461 23.1462 6.44349C23.0593 6.65238 22.9319 6.84202 22.7714 7.0015L8.71429 21.1272Z" stroke="white" stroke-width="1.71429" stroke-linecap="round" stroke-linejoin="round"/>
</svg>
