<svg width="24" height="24" viewBox="0 0 24 24" fill="none" xmlns="http://www.w3.org/2000/svg">
<path d="M8.57146 20.9829L0.857178 23.1429L3.01718 15.4286L17.1429 1.3715C17.3025 1.20822 17.4932 1.07849 17.7037 0.989912C17.9142 0.901339 18.1402 0.855713 18.3686 0.855713C18.597 0.855713 18.823 0.901339 19.0335 0.989912C19.244 1.07849 19.4347 1.20822 19.5943 1.3715L22.6286 4.42293C22.7891 4.58241 22.9164 4.77205 23.0033 4.98094C23.0902 5.18982 23.135 5.41383 23.135 5.64007C23.135 5.86631 23.0902 6.09032 23.0033 6.29921C22.9164 6.50809 22.7891 6.69773 22.6286 6.85721L8.57146 20.9829Z" stroke="#13299D" stroke-width="1.71429" stroke-linecap="round" stroke-linejoin="round"/>
</svg>
