<svg width="24" height="24" viewBox="0 0 24 24" fill="none" xmlns="http://www.w3.org/2000/svg">
<g clip-path="url(#clip0_20_126)">
<g clip-path="url(#clip1_20_126)">
<path fill-rule="evenodd" clip-rule="evenodd" d="M24 12C24 15.1826 22.7357 18.2348 20.4853 20.4853C18.2348 22.7357 15.1826 24 12 24C8.8174 24 5.76515 22.7357 3.51472 20.4853C1.26428 18.2348 0 15.1826 0 12C0 8.8174 1.26428 5.76515 3.51472 3.51472C5.76515 1.26428 8.8174 0 12 0C15.1826 0 18.2348 1.26428 20.4853 3.51472C22.7357 5.76515 24 8.8174 24 12ZM12 5.57143C12.341 5.57143 12.668 5.70689 12.9091 5.94801C13.1503 6.18912 13.2857 6.51615 13.2857 6.85714V10.7143H17.1429C17.4839 10.7143 17.8109 10.8497 18.052 11.0909C18.2931 11.332 18.4286 11.659 18.4286 12C18.4286 12.341 18.2931 12.668 18.052 12.9091C17.8109 13.1503 17.4839 13.2857 17.1429 13.2857H13.2857V17.1429C13.2857 17.4839 13.1503 17.8109 12.9091 18.052C12.668 18.2931 12.341 18.4286 12 18.4286C11.659 18.4286 11.332 18.2931 11.0909 18.052C10.8497 17.8109 10.7143 17.4839 10.7143 17.1429V13.2857H6.85714C6.51615 13.2857 6.18912 13.1503 5.94801 12.9091C5.70689 12.668 5.57143 12.341 5.57143 12C5.57143 11.659 5.70689 11.332 5.94801 11.0909C6.18912 10.8497 6.51615 10.7143 6.85714 10.7143H10.7143V6.85714C10.7143 6.51615 10.8497 6.18912 11.0909 5.94801C11.332 5.70689 11.659 5.57143 12 5.57143Z" fill="#13299D"/>
</g>
</g>
<defs>
<clipPath id="clip0_20_126">
<rect width="24" height="24" fill="white"/>
</clipPath>
<clipPath id="clip1_20_126">
<rect width="24" height="24" fill="white"/>
</clipPath>
</defs>
</svg>
