<svg width="25" height="25" viewBox="0 0 25 25" fill="none" xmlns="http://www.w3.org/2000/svg">
<path d="M12.2795 23.1656C15.2348 23.1656 18.069 21.9916 20.1587 19.9019C22.2484 17.8122 23.4224 14.978 23.4224 12.0227C23.4224 9.06747 22.2484 6.23324 20.1587 4.14355C18.069 2.05386 15.2348 0.879883 12.2795 0.879883C9.32425 0.879883 6.49002 2.05386 4.40033 4.14355C2.31063 6.23324 1.13666 9.06747 1.13666 12.0227C1.13666 14.978 2.31063 17.8122 4.40033 19.9019C6.49002 21.9916 9.32425 23.1656 12.2795 23.1656Z" stroke="#13299D" stroke-width="1.71429" stroke-linecap="round" stroke-linejoin="round"/>
<path d="M9.27954 9.02275C9.27899 8.57868 9.37709 8.14004 9.56674 7.73852C9.75639 7.33699 10.0329 6.98261 10.3762 6.70096C10.7195 6.41932 11.1211 6.21745 11.552 6.10994C11.9828 6.00244 12.4322 5.99198 12.8675 6.07932C13.3027 6.16603 13.7133 6.34809 14.0698 6.61243C14.4262 6.87676 14.7196 7.2168 14.929 7.60808C15.1383 7.99936 15.2583 8.43216 15.2804 8.87537C15.3025 9.31857 15.2261 9.76117 15.0567 10.1713C14.8294 10.7197 14.4445 11.1884 13.9508 11.5179C13.457 11.8475 12.8766 12.0232 12.283 12.0227V14.0233" stroke="#13299D" stroke-width="1.71429" stroke-linecap="round" stroke-linejoin="round"/>
<path d="M12.2795 17.9524C12.1659 17.9524 12.0569 17.9072 11.9765 17.8268C11.8961 17.7465 11.851 17.6375 11.851 17.5238C11.851 17.4101 11.8961 17.3011 11.9765 17.2207C12.0569 17.1404 12.1659 17.0952 12.2795 17.0952" stroke="#13299D" stroke-width="1.71429" stroke-linecap="round" stroke-linejoin="round"/>
<path d="M12.2795 17.9524C12.3932 17.9524 12.5022 17.9072 12.5826 17.8268C12.663 17.7465 12.7081 17.6375 12.7081 17.5238C12.7081 17.4101 12.663 17.3011 12.5826 17.2207C12.5022 17.1404 12.3932 17.0952 12.2795 17.0952" stroke="#13299D" stroke-width="1.71429" stroke-linecap="round" stroke-linejoin="round"/>
</svg>
