<svg width="24" height="24" viewBox="0 0 24 24" fill="none" xmlns="http://www.w3.org/2000/svg">
<path fill-rule="evenodd" clip-rule="evenodd" d="M8.86957 0C8.31607 0 7.78524 0.180612 7.39386 0.502103C7.00248 0.823594 6.78261 1.25963 6.78261 1.71429V2.57143C6.78261 3.02609 7.00248 3.46212 7.39386 3.78361C7.78524 4.1051 8.31607 4.28571 8.86957 4.28571H15.1304C15.6839 4.28571 16.2148 4.1051 16.6061 3.78361C16.9975 3.46212 17.2174 3.02609 17.2174 2.57143V1.71429C17.2174 1.25963 16.9975 0.823594 16.6061 0.502103C16.2148 0.180612 15.6839 0 15.1304 0L8.86957 0ZM3.13043 1.71429H4.17391V2.57143C4.17391 3.59441 4.66863 4.57549 5.54924 5.29884C6.42984 6.0222 7.6242 6.42857 8.86957 6.42857H15.1304C16.3758 6.42857 17.5702 6.0222 18.4508 5.29884C19.3314 4.57549 19.8261 3.59441 19.8261 2.57143V1.71429H20.8696C21.6998 1.71429 22.496 1.9852 23.0831 2.46744C23.6702 2.94968 24 3.60373 24 4.28571V21.4286C24 22.1106 23.6702 22.7646 23.0831 23.2468C22.496 23.7291 21.6998 24 20.8696 24H3.13043C2.30019 24 1.50395 23.7291 0.916883 23.2468C0.329813 22.7646 0 22.1106 0 21.4286V4.28571C0 3.60373 0.329813 2.94968 0.916883 2.46744C1.50395 1.9852 2.30019 1.71429 3.13043 1.71429Z" fill="white"/>
</svg>
