<svg width="24" height="24" viewBox="0 0 24 24" fill="none" xmlns="http://www.w3.org/2000/svg">
<path fill-rule="evenodd" clip-rule="evenodd" d="M3.42879 10.2857C3.42879 8.46709 4.15123 6.72295 5.4372 5.43698C6.72316 4.15102 8.4673 3.42857 10.2859 3.42857C12.1046 3.42857 13.8487 4.15102 15.1347 5.43698C16.4206 6.72295 17.1431 8.46709 17.1431 10.2857C17.1431 12.1043 16.4206 13.8485 15.1347 15.1344C13.8487 16.4204 12.1046 17.1429 10.2859 17.1429C8.4673 17.1429 6.72316 16.4204 5.4372 15.1344C4.15123 13.8485 3.42879 12.1043 3.42879 10.2857ZM10.2859 1.94505e-07C8.66714 -0.000206382 7.07115 0.381673 5.62777 1.11458C4.18439 1.84749 2.93438 2.91072 1.9794 4.21782C1.02442 5.52492 0.391436 7.03896 0.131929 8.63682C-0.127578 10.2347 -0.00628005 11.8712 0.485958 13.4134C0.978197 14.9555 1.82748 16.3597 2.96472 17.5117C4.10197 18.6637 5.49507 19.5311 7.03073 20.0432C8.56638 20.5553 10.2012 20.6977 11.8023 20.4588C13.4034 20.22 14.9255 19.6066 16.2448 18.6686L21.0739 23.4977C21.3972 23.81 21.8303 23.9828 22.2798 23.9789C22.7292 23.975 23.1592 23.7947 23.477 23.4768C23.7949 23.159 23.9752 22.729 23.9791 22.2795C23.983 21.8301 23.8102 21.397 23.4979 21.0737L18.6705 16.2463C19.7647 14.7075 20.4142 12.8972 20.5478 11.0137C20.6815 9.13029 20.2941 7.24641 19.4282 5.56851C18.5622 3.89062 17.2511 2.48346 15.6385 1.50124C14.0259 0.519018 12.1741 -0.000366944 10.2859 1.94505e-07Z" fill="white"/>
</svg>
