<svg width="24" height="24" viewBox="0 0 24 24" fill="none" xmlns="http://www.w3.org/2000/svg">
<path fill-rule="evenodd" clip-rule="evenodd" d="M3.42989 10.2857C3.42989 8.46709 4.15233 6.72295 5.4383 5.43698C6.72426 4.15102 8.4684 3.42857 10.287 3.42857C12.1057 3.42857 13.8498 4.15102 15.1358 5.43698C16.4217 6.72295 17.1442 8.46709 17.1442 10.2857C17.1442 12.1043 16.4217 13.8485 15.1358 15.1344C13.8498 16.4204 12.1057 17.1429 10.287 17.1429C8.4684 17.1429 6.72426 16.4204 5.4383 15.1344C4.15233 13.8485 3.42989 12.1043 3.42989 10.2857ZM10.287 1.94505e-07C8.66823 -0.000206382 7.07225 0.381673 5.62887 1.11458C4.18549 1.84749 2.93548 2.91072 1.9805 4.21782C1.02552 5.52492 0.392535 7.03896 0.133027 8.63682C-0.12648 10.2347 -0.00518141 11.8712 0.487057 13.4134C0.979295 14.9555 1.82857 16.3597 2.96582 17.5117C4.10307 18.6637 5.49617 19.5311 7.03183 20.0432C8.56748 20.5553 10.2023 20.6977 11.8034 20.4588C13.4045 20.22 14.9266 19.6066 16.2459 18.6686L21.075 23.4977C21.3983 23.81 21.8314 23.9828 22.2809 23.9789C22.7303 23.975 23.1603 23.7947 23.4781 23.4768C23.796 23.159 23.9763 22.729 23.9802 22.2795C23.9841 21.8301 23.8113 21.397 23.499 21.0737L18.6716 16.2463C19.7658 14.7075 20.4153 12.8972 20.5489 11.0137C20.6826 9.13029 20.2952 7.24641 19.4293 5.56851C18.5633 3.89062 17.2522 2.48346 15.6396 1.50124C14.027 0.519018 12.1752 -0.000366944 10.287 1.94505e-07Z" fill="#13299D"/>
</svg>
