<svg width="24" height="24" viewBox="0 0 24 24" fill="none" xmlns="http://www.w3.org/2000/svg">
<path d="M6.22287 6.2125C7.92173 5.1085 9.89316 4.28564 12 4.28564C16.7829 4.28564 20.88 8.5285 22.68 10.7074C22.9646 11.0622 23.1223 11.5234 23.1223 11.9999C23.1223 12.4782 22.9646 12.9376 22.68 13.2925C21.6874 14.4925 19.9972 16.3216 17.88 17.7205M14.5714 19.3199C13.7452 19.5702 12.8846 19.7142 12 19.7142C7.21716 19.7142 3.12001 15.4714 1.32001 13.2925C1.03062 12.9241 0.874703 12.4684 0.877729 11.9999C0.877729 11.5234 1.03544 11.0622 1.32001 10.7074C1.89087 10.0182 2.69144 9.11993 3.67201 8.21479" stroke="#13299D" stroke-width="1.71429" stroke-linecap="round" stroke-linejoin="round"/>
<path d="M14.424 14.424C15.0486 13.7773 15.3942 12.9113 15.3864 12.0123C15.3785 11.1133 15.018 10.2534 14.3823 9.61773C13.7466 8.98205 12.8867 8.62147 11.9877 8.61365C11.0888 8.60584 10.2227 8.95142 9.57605 9.57597" stroke="#13299D" stroke-width="1.71429" stroke-linecap="round" stroke-linejoin="round"/>
<path d="M23.1429 23.1429L0.857178 0.857178" stroke="#13299D" stroke-width="1.71429" stroke-linecap="round" stroke-linejoin="round"/>
</svg>
