<svg width="15" height="15" viewBox="0 0 15 15" fill="none" xmlns="http://www.w3.org/2000/svg">
<path d="M11.25 0.535645H3.75001C2.89752 0.535645 2.07996 0.874291 1.47716 1.47709C0.874368 2.07988 0.535721 2.89745 0.535721 3.74993V11.2499C0.535721 12.1024 0.874368 12.92 1.47716 13.5228C2.07996 14.1256 2.89752 14.4642 3.75001 14.4642H11.25C12.1025 14.4642 12.9201 14.1256 13.5228 13.5228C14.1256 12.92 14.4643 12.1024 14.4643 11.2499V3.74993C14.4643 2.89745 14.1256 2.07988 13.5228 1.47709C12.9201 0.874291 12.1025 0.535645 11.25 0.535645Z" stroke="white" stroke-width="1.71429" stroke-linecap="round" stroke-linejoin="round"/>
<path d="M10.6254 5.08911L6.33965 10.4463L4.19679 8.83911" stroke="white" stroke-width="1.71429" stroke-linecap="round" stroke-linejoin="round"/>
</svg>
