<svg width="23" height="19" viewBox="0 0 23 19" fill="none" xmlns="http://www.w3.org/2000/svg">
<path d="M1.19043 15.5143C1.19043 15.9689 1.37104 16.405 1.69253 16.7265C2.01402 17.048 2.45006 17.2286 2.90472 17.2286H20.3699C20.8245 17.2286 21.2606 17.048 21.582 16.7265C21.9035 16.405 22.0841 15.9689 22.0841 15.5143V12.36C21.392 12.1715 20.781 11.7606 20.3455 11.1906C19.9099 10.6206 19.6739 9.9231 19.6739 9.20572C19.6739 8.48834 19.9099 7.79088 20.3455 7.22086C20.781 6.65084 21.392 6.23992 22.0841 6.05143V2.89715C22.0841 2.44249 21.9035 2.00645 21.582 1.68496C21.2606 1.36347 20.8245 1.18286 20.3699 1.18286H2.90472C2.45006 1.18286 2.01402 1.36347 1.69253 1.68496C1.37104 2.00645 1.19043 2.44249 1.19043 2.89715V6.04458C1.88849 6.2286 2.50601 6.63851 2.94664 7.21035C3.38727 7.7822 3.62622 8.48381 3.62622 9.20572C3.62622 9.92763 3.38727 10.6292 2.94664 11.2011C2.50601 11.7729 1.88849 12.1828 1.19043 12.3669V15.5143Z" stroke="#13299D" stroke-width="1.71429" stroke-linecap="round" stroke-linejoin="round"/>
<path d="M15.2545 1.19653V4.00796" stroke="#13299D" stroke-width="1.71429" stroke-linecap="round" stroke-linejoin="round"/>
<path d="M15.2545 7.80005V10.6115" stroke="#13299D" stroke-width="1.71429" stroke-linecap="round" stroke-linejoin="round"/>
<path d="M15.2545 14.4172V17.2287" stroke="#13299D" stroke-width="1.71429" stroke-linecap="round" stroke-linejoin="round"/>
</svg>
