<svg width="24" height="24" viewBox="0 0 24 24" fill="none" xmlns="http://www.w3.org/2000/svg">
<g clip-path="url(#clip0_17_74)">
<path fill-rule="evenodd" clip-rule="evenodd" d="M6.17654 2.42061C6.32557 2.34114 6.45749 2.2331 6.56477 2.10264C6.67205 1.97219 6.75258 1.82189 6.80176 1.66032C6.85095 1.49874 6.86784 1.32906 6.85145 1.16096C6.83506 0.992865 6.78572 0.82964 6.70626 0.680609C6.62679 0.531577 6.51874 0.399657 6.38829 0.292381C6.25784 0.185105 6.10754 0.104574 5.94596 0.0553857C5.78439 0.0061972 5.61471 -0.0106853 5.44661 0.00570209C5.27851 0.0220895 5.11529 0.0714259 4.96626 0.150894C3.19753 1.09367 1.61933 2.35681 0.311971 3.87604C0.194502 4.00278 0.103789 4.1519 0.0452515 4.31449C-0.013286 4.47708 -0.0384463 4.64981 -0.028726 4.82234C-0.0190058 4.99487 0.0253956 5.16368 0.101825 5.31867C0.178254 5.47365 0.285143 5.61164 0.416104 5.72439C0.547065 5.83713 0.69941 5.92232 0.864036 5.97487C1.02866 6.02741 1.20219 6.04622 1.37425 6.03019C1.54632 6.01415 1.71338 5.9636 1.86546 5.88154C2.01755 5.79948 2.15153 5.68761 2.2594 5.55261C3.35984 4.27499 4.6881 3.21297 6.17654 2.42061ZM12 24C13.3507 24 14.6882 23.734 15.9361 23.2171C17.1841 22.7002 18.318 21.9425 19.2731 20.9874C20.2282 20.0323 20.9858 18.8984 21.5027 17.6505C22.0196 16.4026 22.2857 15.0651 22.2857 13.7143C22.2857 12.3636 22.0196 11.0261 21.5027 9.77815C20.9858 8.53023 20.2282 7.39634 19.2731 6.44122C18.318 5.48611 17.1841 4.72847 15.9361 4.21156C14.6882 3.69466 13.3507 3.42861 12 3.42861C9.27203 3.42861 6.65582 4.51228 4.72687 6.44122C2.79793 8.37017 1.71426 10.9864 1.71426 13.7143C1.71426 16.4423 2.79793 19.0585 4.72687 20.9874C6.65582 22.9164 9.27203 24 12 24ZM17.2937 0.682323C17.373 0.533107 17.4809 0.400983 17.6113 0.293503C17.7416 0.186024 17.8919 0.105299 18.0535 0.0559427C18.2151 0.00658683 18.3849 -0.0104314 18.5531 0.00586116C18.7212 0.0221537 18.8846 0.0714375 19.0337 0.150894C20.8024 1.09367 22.3806 2.35681 23.688 3.87604C23.8957 4.13606 23.9946 4.46653 23.9637 4.79793C23.9328 5.12933 23.7746 5.43584 23.5224 5.65299C23.2701 5.87015 22.9435 5.98103 22.6112 5.9623C22.2789 5.94358 21.9668 5.79672 21.7405 5.55261C20.6401 4.27499 19.3118 3.21297 17.8234 2.42061C17.5228 2.26019 17.2982 1.98702 17.1988 1.66108C17.0995 1.33515 17.1336 0.983118 17.2937 0.682323ZM13.0714 8.57147C13.0714 8.28731 12.9585 8.01478 12.7576 7.81385C12.5567 7.61292 12.2841 7.50004 12 7.50004C11.7158 7.50004 11.4433 7.61292 11.2424 7.81385C11.0414 8.01478 10.9285 8.28731 10.9285 8.57147V13.7143C10.9285 14.3058 11.4085 14.7858 12 14.7858H16.2857C16.5698 14.7858 16.8424 14.6729 17.0433 14.4719C17.2442 14.271 17.3571 13.9985 17.3571 13.7143C17.3571 13.4302 17.2442 13.1576 17.0433 12.9567C16.8424 12.7558 16.5698 12.6429 16.2857 12.6429H13.0714V8.57147Z" fill="#13299D"/>
</g>
<defs>
<clipPath id="clip0_17_74">
<rect width="24" height="24" fill="white"/>
</clipPath>
</defs>
</svg>
