<svg width="24" height="24" viewBox="0 0 24 24" fill="none" xmlns="http://www.w3.org/2000/svg">
<path fill-rule="evenodd" clip-rule="evenodd" d="M9.80089 3.44747C10.1818 3.08033 10.655 2.81482 11.1743 2.67693C11.6935 2.53905 12.241 2.5335 12.7631 2.66084C13.2853 2.78818 13.7642 3.04405 14.153 3.4034C14.5418 3.76275 14.8272 4.21327 14.9813 4.7109H9.01867C9.1666 4.23367 9.43542 3.79947 9.80089 3.44747ZM6.29156 4.7109C6.50435 3.39835 7.19652 2.20231 8.24323 1.33851C9.28994 0.474709 10.6223 0 12 0C13.3777 0 14.7101 0.474709 15.7568 1.33851C16.8035 2.20231 17.4957 3.39835 17.7084 4.7109H22.6667C23.0203 4.7109 23.3594 4.84636 23.6095 5.08748C23.8595 5.32859 24 5.65562 24 5.99661C24 6.33761 23.8595 6.66463 23.6095 6.90575C23.3594 7.14687 23.0203 7.28233 22.6667 7.28233H20.8889V21.4252C20.8889 22.1072 20.6079 22.7612 20.1078 23.2435C19.6077 23.7257 18.9295 23.9966 18.2222 23.9966H5.77778C5.07053 23.9966 4.39226 23.7257 3.89216 23.2435C3.39206 22.7612 3.11111 22.1072 3.11111 21.4252V7.28233H1.33333C1.15824 7.28233 0.984856 7.24907 0.823089 7.18446C0.661321 7.11985 0.514336 7.02514 0.390524 6.90575C0.266713 6.78636 0.1685 6.64463 0.101494 6.48864C0.0344877 6.33265 0 6.16546 0 5.99661C0 5.82777 0.0344877 5.66058 0.101494 5.50459C0.1685 5.3486 0.266713 5.20687 0.390524 5.08748C0.514336 4.96809 0.661321 4.87338 0.823089 4.80877C0.984856 4.74416 1.15824 4.7109 1.33333 4.7109H6.29156ZM8.44444 10.0698C9.05778 10.0698 9.55556 10.5498 9.55556 11.1412V18.0018C9.55556 18.2859 9.43849 18.5584 9.23012 18.7594C9.02174 18.9603 8.73913 19.0732 8.44444 19.0732C8.14976 19.0732 7.86714 18.9603 7.65877 18.7594C7.4504 18.5584 7.33333 18.2859 7.33333 18.0018V11.1412C7.33333 10.5498 7.83111 10.0698 8.44444 10.0698ZM16.6667 11.1412C16.6667 10.857 16.5496 10.5845 16.3412 10.3836C16.1329 10.1826 15.8502 10.0698 15.5556 10.0698C15.2609 10.0698 14.9783 10.1826 14.7699 10.3836C14.5615 10.5845 14.4444 10.857 14.4444 11.1412V18.0018C14.4444 18.2859 14.5615 18.5584 14.7699 18.7594C14.9783 18.9603 15.2609 19.0732 15.5556 19.0732C15.8502 19.0732 16.1329 18.9603 16.3412 18.7594C16.5496 18.5584 16.6667 18.2859 16.6667 18.0018V11.1412Z" fill="#CE2929"/>
</svg>
