<svg width="25" height="25" viewBox="0 0 25 25" fill="none" xmlns="http://www.w3.org/2000/svg">
<path d="M12.1429 13.8571C13.2795 13.8571 14.3696 13.4055 15.1733 12.6018C15.9771 11.7981 16.4286 10.708 16.4286 9.57136C16.4286 8.43472 15.9771 7.34463 15.1733 6.5409C14.3696 5.73717 13.2795 5.28564 12.1429 5.28564C11.0062 5.28564 9.91616 5.73717 9.11243 6.5409C8.30871 7.34463 7.85718 8.43472 7.85718 9.57136C7.85718 10.708 8.30871 11.7981 9.11243 12.6018C9.91616 13.4055 11.0062 13.8571 12.1429 13.8571Z" stroke="white" stroke-width="1.71429" stroke-linecap="round" stroke-linejoin="round"/>
<path d="M4.82288 20.5429C5.58786 19.2872 6.663 18.2494 7.94495 17.5293C9.22689 16.8091 10.6725 16.4309 12.1429 16.4309C13.6132 16.4309 15.0589 16.8091 16.3408 17.5293C17.6227 18.2494 18.6979 19.2872 19.4629 20.5429" stroke="white" stroke-width="1.71429" stroke-linecap="round" stroke-linejoin="round"/>
<path d="M12.1429 23.2857C15.0981 23.2857 17.9324 22.1117 20.022 20.022C22.1117 17.9324 23.2857 15.0981 23.2857 12.1429C23.2857 9.18759 22.1117 6.35336 20.022 4.26367C17.9324 2.17398 15.0981 1 12.1429 1C9.18759 1 6.35336 2.17398 4.26367 4.26367C2.17398 6.35336 1 9.18759 1 12.1429C1 15.0981 2.17398 17.9324 4.26367 20.022C6.35336 22.1117 9.18759 23.2857 12.1429 23.2857Z" stroke="white" stroke-width="1.71429" stroke-linecap="round" stroke-linejoin="round"/>
</svg>
