<svg width="15" height="15" viewBox="0 0 15 15" fill="none" xmlns="http://www.w3.org/2000/svg">
<path d="M8.91461 0.582899C8.8247 0.407398 8.6881 0.260114 8.51985 0.157267C8.3516 0.05442 8.15824 0 7.96104 0C7.76385 0 7.57048 0.05442 7.40223 0.157267C7.23399 0.260114 7.09738 0.407398 7.00747 0.582899L1.11461 12.3686C1.03243 12.5317 0.993295 12.7131 1.00094 12.8956C1.00858 13.0781 1.06275 13.2556 1.15829 13.4112C1.25383 13.5669 1.38758 13.6955 1.54683 13.785C1.70608 13.8744 1.88555 13.9216 2.06819 13.9222H13.8539C14.0365 13.9216 14.216 13.8744 14.3753 13.785C14.5345 13.6955 14.6683 13.5669 14.7638 13.4112C14.8593 13.2556 14.9135 13.0781 14.9211 12.8956C14.9288 12.7131 14.8897 12.5317 14.8075 12.3686L8.91461 0.582899Z" stroke="white" stroke-width="1.71429" stroke-linecap="round" stroke-linejoin="round"/>
<path d="M7.96104 4.81494V8.29708" stroke="white" stroke-width="1.71429" stroke-linecap="round" stroke-linejoin="round"/>
<path d="M7.96105 11.2437C7.89001 11.2437 7.82188 11.2155 7.77164 11.1653C7.72141 11.115 7.69319 11.0469 7.69319 10.9759C7.69319 10.9048 7.72141 10.8367 7.77164 10.7865C7.82188 10.7362 7.89001 10.708 7.96105 10.708" stroke="white" stroke-width="1.71429" stroke-linecap="round" stroke-linejoin="round"/>
<path d="M7.96104 11.2437C8.03208 11.2437 8.10022 11.2155 8.15045 11.1653C8.20068 11.115 8.2289 11.0469 8.2289 10.9759C8.2289 10.9048 8.20068 10.8367 8.15045 10.7865C8.10022 10.7362 8.03208 10.708 7.96104 10.708" stroke="white" stroke-width="1.71429" stroke-linecap="round" stroke-linejoin="round"/>
</svg>
